<svg width="577" height="34" viewBox="0 0 577 34" fill="none" xmlns="http://www.w3.org/2000/svg">
<path d="M27.0205 0.999998V28H22.3045V3.052L24.4645 5.212H3.04453L5.20453 3.052V28H0.452528V0.999998H27.0205ZM50.9695 0.999998C52.9855 0.999998 54.7255 1.36 56.1895 2.08C57.6775 2.8 58.8175 3.808 59.6095 5.104C60.4255 6.376 60.8335 7.852 60.8335 9.532C60.8335 11.212 60.4255 12.7 59.6095 13.996C58.8175 15.268 57.6775 16.264 56.1895 16.984C54.7255 17.704 52.9855 18.064 50.9695 18.064H38.8375V13.96H50.7895C52.4215 13.96 53.6935 13.564 54.6055 12.772C55.5415 11.98 56.0095 10.9 56.0095 9.532C56.0095 8.164 55.5415 7.084 54.6055 6.292C53.6935 5.5 52.4215 5.104 50.7895 5.104H39.3055L41.4295 2.728V28H36.6775V0.999998H50.9695ZM89.8962 12.52V16.48H71.0322V12.52H89.8962ZM74.1642 14.5L72.2562 26.56L69.9882 23.896H90.9402V28H67.3962L69.5562 14.5L67.3962 0.999998H90.7602V5.104H69.9882L72.2562 2.44L74.1642 14.5ZM96.7286 33.544V23.824H100.977L103.785 23.896H123.873L124.989 23.824H131.685V33.544H127.257V28H101.157V33.544H96.7286ZM102.669 0.999998H126.933V26.164H122.181V3.016L124.341 5.176H105.225L107.277 3.664C107.397 4.984 107.481 6.292 107.529 7.588C107.577 8.884 107.601 10.108 107.601 11.26C107.601 14.284 107.385 16.864 106.953 19C106.521 21.136 105.885 22.768 105.045 23.896C104.205 25.024 103.185 25.588 101.985 25.588L100.005 23.896C101.085 22.696 101.877 20.98 102.381 18.748C102.909 16.516 103.173 13.708 103.173 10.324C103.173 8.86 103.125 7.336 103.029 5.752C102.933 4.168 102.813 2.584 102.669 0.999998ZM139.2 28V0.999998H143.808V25.768L142.188 25.48L161.016 0.999998H167.208V28H162.6V3.016L164.22 3.304L145.248 28H139.2ZM188.459 28.504C185.795 28.504 183.467 28.12 181.475 27.352C179.483 26.584 177.923 25.492 176.795 24.076C175.667 22.66 175.043 21.004 174.923 19.108H179.675C179.915 20.908 180.779 22.3 182.267 23.284C183.779 24.244 185.843 24.724 188.459 24.724C190.979 24.724 192.935 24.34 194.327 23.572C195.743 22.78 196.451 21.604 196.451 20.044C196.451 18.724 195.875 17.74 194.723 17.092C193.571 16.444 191.723 16.12 189.179 16.12H183.779V12.772H189.071C190.583 12.772 191.831 12.592 192.815 12.232C193.799 11.872 194.531 11.38 195.011 10.756C195.491 10.108 195.731 9.4 195.731 8.632C195.731 7.696 195.431 6.904 194.831 6.256C194.255 5.608 193.427 5.116 192.347 4.78C191.267 4.444 190.007 4.276 188.567 4.276C186.167 4.276 184.247 4.744 182.807 5.68C181.367 6.616 180.515 7.912 180.251 9.568H175.535C175.703 7.864 176.315 6.328 177.371 4.96C178.451 3.592 179.951 2.512 181.871 1.72C183.815 0.903998 186.119 0.495998 188.783 0.495998C191.183 0.495998 193.259 0.819998 195.011 1.468C196.787 2.092 198.155 2.968 199.115 4.096C200.099 5.2 200.591 6.484 200.591 7.948C200.591 9.196 200.219 10.336 199.475 11.368C198.731 12.4 197.615 13.216 196.127 13.816C194.639 14.416 192.767 14.716 190.511 14.716V14.032C192.743 13.936 194.663 14.128 196.271 14.608C197.879 15.064 199.115 15.772 199.979 16.732C200.867 17.692 201.311 18.892 201.311 20.332C201.311 21.964 200.807 23.392 199.799 24.616C198.815 25.84 197.363 26.8 195.443 27.496C193.523 28.168 191.195 28.504 188.459 28.504ZM225.991 14.608L226.459 13.564C228.595 13.588 230.335 13.912 231.679 14.536C233.047 15.16 234.043 16 234.667 17.056C235.315 18.112 235.639 19.3 235.639 20.62C235.639 22.06 235.291 23.332 234.595 24.436C233.923 25.54 232.927 26.416 231.607 27.064C230.287 27.688 228.643 28 226.675 28H208.675L210.799 14.14L208.675 0.999998H226.027C228.523 0.999998 230.443 1.588 231.787 2.764C233.155 3.916 233.839 5.512 233.839 7.552C233.839 8.632 233.575 9.688 233.047 10.72C232.543 11.728 231.715 12.592 230.563 13.312C229.435 14.008 227.911 14.44 225.991 14.608ZM213.463 26.668L211.627 24.184H226.135C227.623 24.184 228.775 23.848 229.591 23.176C230.431 22.48 230.851 21.496 230.851 20.224C230.851 18.88 230.359 17.836 229.375 17.092C228.415 16.348 226.987 15.976 225.091 15.976H213.391V12.304H224.623C225.895 12.304 226.951 11.956 227.791 11.26C228.631 10.54 229.051 9.52 229.051 8.2C229.051 7.216 228.703 6.412 228.007 5.788C227.311 5.14 226.303 4.816 224.983 4.816H211.627L213.463 2.332L215.371 14.14L213.463 26.668ZM243.692 28V0.999998H248.3V25.768L246.68 25.48L265.508 0.999998H271.7V28H267.092V3.016L268.712 3.304L249.74 28H243.692ZM281.358 28V0.999998H286.11V24.004L284.67 23.104L302.742 0.999998H307.89L285.606 28H281.358ZM294.21 14.428L297.558 11.152L308.286 28H302.85L294.21 14.428ZM318.511 21.808V17.884H337.375V21.808H318.511ZM331.039 0.999998L343.999 28H338.923L327.151 2.8H328.987L317.215 28H312.139L325.099 0.999998H331.039ZM354.891 3.196H359.643V28H354.891V3.196ZM343.731 0.999998H370.803V5.176H343.731V0.999998ZM399.574 12.52V16.48H380.71V12.52H399.574ZM383.842 14.5L381.934 26.56L379.666 23.896H400.618V28H377.074L379.234 14.5L377.074 0.999998H400.438V5.104H379.666L381.934 2.44L383.842 14.5ZM413.427 0.999998H437.835V28H433.083V3.052L435.243 5.212H416.091L418.107 3.592C418.299 5.56 418.443 7.42 418.539 9.172C418.635 10.924 418.683 12.568 418.683 14.104C418.683 17.464 418.395 20.2 417.819 22.312C417.243 24.424 416.343 25.984 415.119 26.992C413.919 27.976 412.347 28.468 410.403 28.468C409.659 28.468 408.927 28.384 408.207 28.216C407.487 28.072 406.839 27.844 406.263 27.532V23.5C407.271 23.908 408.219 24.112 409.107 24.112C410.883 24.112 412.167 23.272 412.959 21.592C413.775 19.912 414.183 17.188 414.183 13.42C414.183 11.788 414.123 9.928 414.003 7.84C413.883 5.728 413.691 3.448 413.427 0.999998ZM475.947 17.308C475.707 19.516 474.927 21.472 473.607 23.176C472.311 24.856 470.607 26.164 468.495 27.1C466.383 28.036 463.971 28.504 461.259 28.504C458.235 28.504 455.583 27.916 453.303 26.74C451.023 25.564 449.247 23.932 447.975 21.844C446.703 19.732 446.067 17.284 446.067 14.5C446.067 11.716 446.703 9.28 447.975 7.192C449.247 5.08 451.023 3.436 453.303 2.26C455.583 1.084 458.235 0.495998 461.259 0.495998C463.971 0.495998 466.383 0.963998 468.495 1.9C470.607 2.836 472.311 4.144 473.607 5.824C474.927 7.504 475.707 9.46 475.947 11.692H471.159C470.895 10.252 470.319 9.016 469.431 7.984C468.567 6.952 467.439 6.16 466.047 5.608C464.655 5.032 463.047 4.744 461.223 4.744C459.111 4.744 457.275 5.14 455.715 5.932C454.179 6.724 452.991 7.852 452.151 9.316C451.311 10.78 450.891 12.508 450.891 14.5C450.891 16.492 451.311 18.22 452.151 19.684C452.991 21.148 454.179 22.276 455.715 23.068C457.275 23.86 459.111 24.256 461.223 24.256C463.047 24.256 464.655 23.98 466.047 23.428C467.439 22.876 468.567 22.084 469.431 21.052C470.319 19.996 470.895 18.748 471.159 17.308H475.947ZM491.318 3.196H496.07V28H491.318V3.196ZM480.158 0.999998H507.23V5.176H480.158V0.999998ZM530.817 14.608L531.285 13.564C533.421 13.588 535.161 13.912 536.505 14.536C537.873 15.16 538.869 16 539.493 17.056C540.141 18.112 540.465 19.3 540.465 20.62C540.465 22.06 540.117 23.332 539.421 24.436C538.749 25.54 537.753 26.416 536.433 27.064C535.113 27.688 533.469 28 531.501 28H513.501L515.625 14.14L513.501 0.999998H530.853C533.349 0.999998 535.269 1.588 536.613 2.764C537.981 3.916 538.665 5.512 538.665 7.552C538.665 8.632 538.401 9.688 537.873 10.72C537.369 11.728 536.541 12.592 535.389 13.312C534.261 14.008 532.737 14.44 530.817 14.608ZM518.289 26.668L516.453 24.184H530.961C532.449 24.184 533.601 23.848 534.417 23.176C535.257 22.48 535.677 21.496 535.677 20.224C535.677 18.88 535.185 17.836 534.201 17.092C533.241 16.348 531.813 15.976 529.917 15.976H518.217V12.304H529.449C530.721 12.304 531.777 11.956 532.617 11.26C533.457 10.54 533.877 9.52 533.877 8.2C533.877 7.216 533.529 6.412 532.833 5.788C532.137 5.14 531.129 4.816 529.809 4.816H516.453L518.289 2.332L520.197 14.14L518.289 26.668ZM550.817 21.808V17.884H569.681V21.808H550.817ZM563.345 0.999998L576.305 28H571.229L559.457 2.8H561.293L549.521 28H544.445L557.405 0.999998H563.345Z" fill="white"/>
</svg>
