<svg xmlns="http://www.w3.org/2000/svg" width="44" height="43" viewBox="0 0 44 43" fill="none">
  <mask id="mask0_1608_11999" style="mask-type:alpha" maskUnits="userSpaceOnUse" x="0" y="0" width="44" height="43">
    <rect x="0.398438" width="42.7255" height="43" fill="#D9D9D9"/>
  </mask>
  <g mask="url(#mask0_1608_11999)">
    <path d="M11.8273 9.36081L10.0834 3.98581L12.5248 3.17956L14.2687 8.50977L11.8273 9.36081ZM17.8437 7.16602V1.79102H20.4596V7.16602H17.8437ZM26.476 9.36081L24.0346 8.50977L25.7785 3.17956L28.2199 4.0306L26.476 9.36081ZM1.97423 41.2077L1.45106 37.6691L10.6501 36.2358C10.9698 36.1761 11.2532 36.0342 11.5003 35.8103C11.7473 35.5863 11.929 35.3101 12.0453 34.9816L13.5276 30.2337C13.6729 29.8157 13.6729 29.4125 13.5276 29.0243C13.3822 28.6362 13.1207 28.3375 12.7428 28.1285L11.3041 32.7869L7.99069 31.7119L11.8273 19.2598C11.8854 19.0806 11.9145 18.8865 11.9145 18.6775C11.9145 18.4684 11.8854 18.2744 11.8273 18.0952L5.9852 29.3827C5.52016 30.2487 4.87347 30.9429 4.04511 31.4655C3.21676 31.9881 2.32301 32.2493 1.36387 32.2493H-0.03125V28.666H1.36387C1.68358 28.666 1.9815 28.5839 2.25762 28.4197C2.53374 28.2554 2.74446 28.024 2.88978 27.7254L10.6065 12.765L12.7864 14.0191C13.8618 14.6462 14.6248 15.5495 15.0753 16.729C15.5258 17.9086 15.5621 19.1105 15.1843 20.3348L13.8328 24.7243C15.1116 25.232 16.0344 26.1278 16.6012 27.4118C17.168 28.6959 17.2479 30.0098 16.841 31.3535L15.3587 36.1014C15.0389 37.057 14.5085 37.8707 13.7674 38.5426C13.0262 39.2145 12.1615 39.625 11.1733 39.7744L1.97423 41.2077ZM36.3291 41.2077L27.13 39.7744C26.1418 39.625 25.2771 39.2145 24.5359 38.5426C23.7948 37.8707 23.2643 37.057 22.9446 36.1014L21.4623 31.3535C21.0554 30.0098 21.1353 28.6959 21.7021 27.4118C22.2689 26.1278 23.1917 25.232 24.4705 24.7243L23.119 20.3348C22.7412 19.1105 22.7775 17.9086 23.228 16.729C23.6785 15.5495 24.4415 14.6462 25.5169 14.0191L27.6968 12.765L35.4135 27.7254C35.5588 28.024 35.7696 28.2554 36.0457 28.4197C36.3218 28.5839 36.6197 28.666 36.9394 28.666H38.3345V32.2493H36.9394C35.9803 32.2493 35.0865 31.9881 34.2582 31.4655C33.4298 30.9429 32.7831 30.2487 32.3181 29.3827L26.476 18.0952C26.4179 18.2744 26.3888 18.4684 26.3888 18.6775C26.3888 18.8865 26.4179 19.0806 26.476 19.2598L30.3126 31.7119L26.9992 32.7869L25.5605 28.1285C25.1826 28.3375 24.921 28.6362 24.7757 29.0243C24.6304 29.4125 24.6304 29.8157 24.7757 30.2337L26.258 34.9816C26.3743 35.3101 26.556 35.5863 26.803 35.8103C27.0501 36.0342 27.3334 36.1761 27.6532 36.2358L36.8522 37.6691L36.3291 41.2077Z" fill="#136062"/>
  </g>
</svg>