<svg xmlns="http://www.w3.org/2000/svg" width="58" height="58" viewBox="0 0 58 58" fill="none">
  <mask id="mask0_1608_11980" style="mask-type:alpha" maskUnits="userSpaceOnUse" x="0" y="0" width="58" height="58">
    <rect x="0.1875" width="57.6298" height="58" fill="#D9D9D9"/>
  </mask>
  <g mask="url(#mask0_1608_11980)">
    <path d="M37.7835 50.75C37.1171 50.75 36.5584 50.5184 36.1076 50.0552C35.6567 49.592 35.4313 49.0181 35.4313 48.3333V29.1208C35.4313 28.4361 35.6567 27.8622 36.1076 27.399C36.5584 26.9358 37.1171 26.7042 37.7835 26.7042H47.1925C47.859 26.7042 48.4176 26.9358 48.8685 27.399C49.3193 27.8622 49.5447 28.4361 49.5447 29.1208V48.3333C49.5447 49.0181 49.3193 49.592 48.8685 50.0552C48.4176 50.5184 47.859 50.75 47.1925 50.75H37.7835ZM37.7835 45.9167H47.1925V31.5375H37.7835V45.9167ZM16.6134 50.75V45.9167H21.3179V41.0833H7.20447C5.91074 41.0833 4.80323 40.6101 3.88194 39.6635C2.96065 38.717 2.5 37.5792 2.5 36.25V12.0833C2.5 10.7542 2.96065 9.61632 3.88194 8.66979C4.80323 7.72326 5.91074 7.25 7.20447 7.25H40.1358C41.4295 7.25 42.537 7.72326 43.4583 8.66979C44.3796 9.61632 44.8403 10.7542 44.8403 12.0833V21.8708H40.1358V12.0833H7.20447V36.25H30.7268V41.0833H26.0224V45.9167H30.7268V50.75H16.6134ZM18.26 33.2292L23.6701 29L29.0803 33.2292L27.0809 26.3417L32.491 21.8708H25.7871L23.6701 15.1042L21.5531 21.8708H14.8492L20.2594 26.3417L18.26 33.2292Z" fill="#136062"/>
  </g>
</svg>