<svg xmlns="http://www.w3.org/2000/svg" width="46" height="45" viewBox="0 0 46 45" fill="none">
  <mask id="mask0_1608_11988" style="mask-type:alpha" maskUnits="userSpaceOnUse" x="0" y="0" width="46" height="45">
    <rect x="0.875" width="44.7128" height="45" fill="#D9D9D9"/>
  </mask>
  <g mask="url(#mask0_1608_11988)">
    <path d="M7.4144 41.25C5.77189 41.25 4.55522 40.9062 3.76438 40.2188C2.97354 39.5312 2.57812 38.5 2.57812 37.125C2.57812 35.3125 3.32334 34.1562 4.81376 33.6562C6.30419 33.1562 8.06837 32.9062 10.1063 32.9062H11.0644V30.2813C11.0644 29.2188 11.0492 28.3516 11.0188 27.6797C10.9884 27.0078 10.8971 26.4531 10.745 26.0156C10.593 25.5781 10.4181 25.2734 10.2204 25.1016C10.0226 24.9297 9.7565 24.8438 9.42192 24.8438C9.14816 24.8438 8.89723 24.8906 8.6691 24.9844C8.44097 25.0781 8.25087 25.2031 8.09878 25.3594C7.97712 25.5156 7.90107 25.6797 7.87066 25.8516C7.84024 26.0234 7.85545 26.2031 7.91628 26.3906C8.09878 26.7344 8.3117 27.0703 8.55504 27.3984C8.79837 27.7266 8.92004 28.1094 8.92004 28.5469C8.92004 29.3281 8.65389 29.9922 8.1216 30.5391C7.5893 31.0859 6.94294 31.3594 6.18252 31.3594C5.4221 31.3594 4.77574 31.0859 4.24345 30.5391C3.71115 29.9922 3.44501 29.3281 3.44501 28.5469C3.44501 27.7031 3.62751 27.0156 3.99251 26.4844C4.35751 25.9531 4.85178 25.5312 5.47533 25.2188C6.09888 24.9062 6.82128 24.6875 7.64253 24.5625C8.46379 24.4375 9.34587 24.375 10.2888 24.375C12.8742 24.375 14.6688 24.8516 15.6726 25.8047C16.6763 26.7578 17.1782 28.4375 17.1782 30.8438V37.7344C17.1782 38.3281 17.2467 38.7656 17.3835 39.0469C17.5204 39.3281 17.7561 39.4688 18.0907 39.4688C18.4557 39.4688 18.7523 39.1875 18.9804 38.625C19.2085 38.0625 19.353 37.1875 19.4139 36H19.9157C19.8245 37.9375 19.4671 39.2969 18.8435 40.0781C18.22 40.8594 17.1782 41.25 15.7182 41.25C14.4103 41.25 13.3837 41.0391 12.6385 40.6172C11.8933 40.1953 11.4142 39.5625 11.2013 38.7188C10.8971 39.625 10.4485 40.2734 9.85536 40.6641C9.26223 41.0547 8.44858 41.25 7.4144 41.25ZM24.4326 41.25C23.8243 41.25 23.33 40.9922 22.9498 40.4766C22.5696 39.9609 22.5012 39.4062 22.7445 38.8125L27.3983 26.2031C27.6112 25.6719 27.9458 25.2344 28.402 24.8906C28.8583 24.5469 29.3754 24.375 29.9533 24.375C30.5312 24.375 31.0483 24.5469 31.5045 24.8906C31.9608 25.2344 32.2954 25.6719 32.5083 26.2031L37.1621 38.8125C37.4054 39.4062 37.337 39.9609 36.9568 40.4766C36.5766 40.9922 36.0823 41.25 35.4739 41.25C35.1089 41.25 34.7744 41.1406 34.4702 40.9219C34.166 40.7031 33.9379 40.4062 33.7858 40.0312L32.8733 37.3125H27.0333L26.1208 40.0312C25.9991 40.375 25.7862 40.6641 25.482 40.8984C25.1778 41.1328 24.8281 41.25 24.4326 41.25ZM9.65004 39.8906C10.0455 39.8906 10.38 39.5703 10.6538 38.9297C10.9276 38.2891 11.0644 37.5156 11.0644 36.6094V33.4688C10.2736 33.4688 9.69567 33.7109 9.33067 34.1953C8.96566 34.6797 8.78316 35.4688 8.78316 36.5625V37.0781C8.78316 38.2031 8.844 38.9531 8.96566 39.3281C9.08733 39.7031 9.31546 39.8906 9.65004 39.8906ZM28.2195 34.0312H31.7327L29.9533 28.6875L28.2195 34.0312ZM26.5314 20.6719C25.0714 20.6719 23.9079 20.1484 23.0411 19.1016C22.1742 18.0547 21.7407 16.6406 21.7407 14.8594C21.7407 11.6094 22.7445 8.94531 24.752 6.86719C26.7595 4.78906 29.3297 3.75 32.4627 3.75C33.7402 3.75 34.7744 3.89844 35.5652 4.19531C36.356 4.49219 36.7515 4.875 36.7515 5.34375C36.7515 5.53125 36.721 5.71875 36.6602 5.90625C36.5994 6.09375 36.4929 6.26563 36.3408 6.42188C36.1887 6.64063 35.9986 6.79688 35.7705 6.89063C35.5424 6.98438 35.3067 7 35.0633 6.9375C34.6375 6.8125 34.1508 6.70312 33.6033 6.60938C33.0558 6.51562 32.5539 6.46875 32.0977 6.46875C29.9381 6.46875 28.2043 7.21875 26.8964 8.71875C25.5885 10.2188 24.9345 12.2031 24.9345 14.6719C24.9345 15.3594 25.0562 16.0781 25.2995 16.8281C25.5428 17.5781 26.0903 17.9531 26.942 17.9531C27.2766 17.9531 27.6036 17.875 27.923 17.7188C28.2423 17.5625 28.5237 17.3438 28.767 17.0625C29.2841 16.5 29.7632 15.5625 30.2042 14.25C30.6453 12.9375 31.0483 11.3438 31.4133 9.46875C31.4741 9.0625 31.6338 8.77344 31.8924 8.60156C32.1509 8.42969 32.5083 8.34375 32.9646 8.34375C33.5121 8.34375 33.9303 8.49219 34.2193 8.78906C34.5082 9.08594 34.5919 9.45312 34.4702 9.89062C34.1052 11.2344 33.839 12.4062 33.6717 13.4062C33.5045 14.4062 33.4208 15.3125 33.4208 16.125C33.4208 16.75 33.5045 17.2031 33.6717 17.4844C33.839 17.7656 34.09 17.9062 34.4246 17.9062C34.7592 17.9062 35.0861 17.7812 35.4055 17.5312C35.7249 17.2812 36.1735 16.8125 36.7515 16.125C36.8123 16.0312 37.0404 15.9219 37.4358 15.7969C37.6792 15.7969 37.8617 15.8906 37.9833 16.0781C38.105 16.2656 38.1658 16.5312 38.1658 16.875C38.1658 17.75 37.6792 18.5938 36.7058 19.4063C35.7325 20.2188 34.7135 20.625 33.6489 20.625C32.8581 20.625 32.1813 20.4063 31.6186 19.9688C31.0559 19.5313 30.6681 18.9062 30.4552 18.0938C29.9989 18.9062 29.4362 19.5391 28.767 19.9922C28.0979 20.4453 27.3526 20.6719 26.5314 20.6719ZM4.40314 20.625V10.3125C4.40314 8.5 5.02668 6.95312 6.27377 5.67188C7.52086 4.39062 9.0265 3.75 10.7907 3.75C12.5549 3.75 14.0605 4.39062 15.3076 5.67188C16.5547 6.95312 17.1782 8.5 17.1782 10.3125V20.625H13.5282V16.875H8.05316V20.625H4.40314ZM8.05316 13.125H13.5282V10.3125C13.5282 9.53125 13.262 8.86719 12.7297 8.32031C12.1975 7.77344 11.5511 7.5 10.7907 7.5C10.0303 7.5 9.38389 7.77344 8.8516 8.32031C8.3193 8.86719 8.05316 9.53125 8.05316 10.3125V13.125Z" fill="#136062"/>
  </g>
</svg>