<svg width="1245" height="868" viewBox="0 0 1245 868" fill="none" xmlns="http://www.w3.org/2000/svg">
<path d="M913.002 28.3668L903.677 0L894.5 28.2557L864.639 28.3668L888.654 45.8461L879.551 74.2869L903.566 56.8447L927.803 74.2869L918.626 46.0312L942.715 28.3668H913.002Z" fill="#7C5A41" fill-opacity="0.05"/>
<path d="M401.81 136.352H401.892C391.605 162.818 386.194 193.038 386.194 226.417C386.194 348.513 472.744 401.358 577.758 430.688C646.324 450.426 680.663 482.829 680.663 528.046C680.663 586.26 643.919 620.145 585.936 620.145C527.952 620.145 496.389 577.632 496.389 522.306V512.122L364.141 512.603C365.931 629.872 424.422 719.143 535.302 739.861L401.07 868H0.550781L401.81 136.352Z" fill="#7C5A41" fill-opacity="0.05"/>
<path d="M793.152 198.902C793.152 176.385 790.042 155.438 784.086 136.352H1167.51L817.003 470.947C803.188 367.461 723.538 329.339 623.42 304.222L623.02 304.115C573.27 290.846 516.185 275.62 516.185 215.567C516.185 167.721 549.747 136.651 593.04 136.651C630.487 136.651 667.305 159.463 667.305 198.902H793.152Z" fill="#7C5A41" fill-opacity="0.05"/>
<path d="M1004.29 0L1013.61 28.3668H1043.32L1019.24 46.0312L1028.41 74.2869L1004.18 56.8447L980.161 74.2869L989.263 45.8461L965.248 28.3668L995.11 28.2557L1004.29 0Z" fill="#7C5A41" fill-opacity="0.05"/>
<path d="M1114.23 28.3668L1104.9 0L1095.73 28.2557L1065.87 28.3668L1089.88 45.8461L1080.78 74.2869L1104.79 56.8447L1129.03 74.2869L1119.85 46.0312L1143.94 28.3668H1114.23Z" fill="#7C5A41" fill-opacity="0.05"/>
<path d="M1205.51 0L1214.87 28.3668H1244.55L1220.46 46.0312L1229.64 74.2869L1205.4 56.8447L1181.39 74.2869L1190.49 45.8461L1166.47 28.3668L1196.34 28.2557L1205.51 0Z" fill="#7C5A41" fill-opacity="0.05"/>
<path d="M812.392 28.3668L803.068 0L793.891 28.2557L764.03 28.3668L788.045 45.8461L778.942 74.2869L802.957 56.8447L827.194 74.2869L818.017 46.0312L842.106 28.3668H812.392Z" fill="#7C5A41" fill-opacity="0.05"/>
</svg>
